<?xml version="1.0" standalone="no"?>
<!DOCTYPE svg PUBLIC "-//W3C//DTD SVG 20010904//EN"
 "http://www.w3.org/TR/2001/REC-SVG-20010904/DTD/svg10.dtd">
<svg version="1.0" xmlns="http://www.w3.org/2000/svg"
 width="249.000000pt" height="245.000000pt" viewBox="0 0 249.000000 245.000000"
 preserveAspectRatio="xMidYMid meet">

<g transform="translate(0.000000,245.000000) scale(0.100000,-0.100000)"
fill="#000000" stroke="none">
<path d="M1015 2370 c-487 -105 -846 -466 -945 -949 -25 -122 -27 -310 -5
-437 18 -98 70 -264 92 -291 14 -17 14 -17 9 2 -3 11 -19 60 -36 109 -47 132
-62 224 -63 381 -1 256 57 454 198 665 174 262 451 446 764 507 178 35 426 18
597 -41 251 -86 466 -250 609 -466 141 -211 199 -409 198 -665 -1 -157 -16
-249 -63 -381 -17 -49 -33 -98 -36 -109 -5 -19 -5 -19 9 -2 23 28 75 195 93
298 24 139 15 361 -19 492 -115 434 -439 759 -874 874 -137 36 -393 42 -528
13z"/>
<path d="M1040 2325 c-158 -29 -339 -108 -471 -206 -87 -65 -223 -207 -282
-296 -89 -134 -154 -305 -177 -462 -19 -127 -8 -344 23 -456 31 -110 63 -195
83 -215 21 -22 18 1 -10 69 -108 255 -111 572 -10 836 115 298 350 534 649
649 139 53 237 70 405 70 168 0 266 -17 405 -70 299 -115 534 -351 649 -649
101 -264 98 -581 -10 -836 -28 -68 -31 -87 -10 -70 22 18 73 168 97 283 18 88
20 125 16 258 -11 323 -119 565 -354 791 -226 217 -486 320 -802 318 -69 0
-160 -7 -201 -14z"/>
<path d="M1182 2208 c-17 -17 -15 -74 4 -92 35 -35 78 -7 71 46 -2 20 -8 41
-11 47 -9 15 -49 14 -64 -1z m40 -41 c-9 -10 -9 -16 0 -25 9 -9 8 -12 -5 -12
-12 0 -17 8 -17 28 0 33 10 46 23 33 7 -7 6 -15 -1 -24z"/>
<path d="M1084 2183 l6 -28 -20 24 c-34 39 -49 22 -37 -43 11 -58 34 -73 30
-20 l-2 29 24 -30 c33 -42 46 -25 33 43 -7 34 -16 52 -25 52 -11 0 -14 -7 -9
-27z"/>
<path d="M1384 2160 c-8 -61 -8 -64 4 -68 5 -1 12 6 15 18 3 12 13 20 26 20
11 0 26 10 32 22 10 18 8 24 -11 40 -40 33 -59 24 -66 -32z m50 -1 c-3 -5 -10
-7 -15 -3 -5 3 -7 10 -3 15 3 5 10 7 15 3 5 -3 7 -10 3 -15z"/>
<path d="M946 2172 c-3 -5 1 -32 9 -60 11 -36 20 -50 29 -46 12 5 12 13 -1 52
-18 53 -28 68 -37 54z"/>
<path d="M1524 2155 c-41 -41 -27 -95 24 -95 17 0 27 9 38 35 26 62 -17 104
-62 60z m40 -14 c8 -13 -11 -61 -24 -61 -11 0 -13 30 -4 54 7 18 20 21 28 7z"/>
<path d="M860 2123 c0 -25 -1 -25 -19 -9 -14 13 -21 14 -26 5 -5 -7 5 -23 24
-41 17 -16 31 -33 31 -39 0 -5 7 -9 16 -9 11 0 14 5 10 16 -3 9 -6 36 -6 60 0
32 -4 44 -15 44 -10 0 -15 -10 -15 -27z"/>
<path d="M1650 2120 c0 -5 5 -10 10 -10 6 0 1 -18 -10 -40 -24 -47 -24 -50 -4
-50 8 0 22 16 30 36 10 24 20 34 30 30 25 -10 15 20 -11 32 -32 15 -45 15 -45
2z"/>
<path d="M720 2072 l-23 -19 28 -46 c27 -48 51 -54 41 -12 -3 13 -2 27 4 30
18 11 10 26 -10 20 -23 -7 -28 13 -5 21 8 4 12 10 9 15 -8 13 -19 11 -44 -9z"/>
<path d="M1746 2030 c-14 -22 -26 -43 -26 -48 0 -4 14 -16 30 -25 27 -16 30
-16 30 -2 0 8 -7 18 -15 21 -22 9 -7 26 16 19 20 -7 27 9 9 20 -20 12 -10 26
11 15 30 -17 38 -1 10 21 -13 10 -27 19 -31 19 -4 0 -19 -18 -34 -40z"/>
<path d="M627 2014 c-4 -4 8 -25 25 -48 18 -23 33 -43 35 -45 2 -3 8 0 13 5 7
7 -1 24 -21 52 -30 42 -40 48 -52 36z"/>
<path d="M1170 1999 c-185 -16 -360 -100 -499 -242 -78 -79 -113 -129 -158
-225 -69 -148 -93 -329 -63 -492 15 -81 60 -201 101 -264 l30 -49 52 6 c29 4
109 10 179 13 l127 7 15 46 c9 25 20 77 26 116 17 106 72 168 153 169 64 1 59
-23 -14 -78 -61 -44 -62 -47 -65 -95 -1 -27 -12 -71 -23 -97 -12 -25 -21 -48
-21 -50 0 -2 22 -4 48 -4 46 0 49 1 61 36 13 37 56 64 102 64 25 0 89 -61 89
-84 0 -13 14 -16 83 -16 86 0 358 -15 464 -26 l62 -6 31 48 c123 195 147 477
59 706 -80 207 -261 387 -468 467 -120 46 -235 62 -371 50z m81 -128 c25 -26
29 -37 29 -85 l0 -56 64 0 c104 0 123 -36 57 -105 l-39 -40 8 -85 c15 -137 53
-220 144 -309 l46 -45 -31 -13 c-18 -8 -35 -25 -42 -43 -6 -16 -14 -30 -17
-30 -3 0 -36 16 -74 35 l-69 35 -56 -34 -55 -34 -19 30 c-17 29 -21 30 -65 24
l-47 -6 63 63 c40 41 62 71 62 86 0 13 14 39 31 59 18 20 42 58 55 86 21 45
22 52 8 59 -16 9 -75 4 -108 -9 -14 -5 -16 5 -16 80 0 91 16 148 48 172 16 12
15 15 -12 43 -34 36 -84 61 -120 61 -35 0 -34 24 3 61 24 24 38 29 76 29 38 0
52 -5 76 -29z m278 -78 c-6 -16 -22 -43 -36 -61 -23 -31 -26 -32 -38 -15 -11
15 -9 20 15 35 16 9 36 29 46 43 21 33 26 32 13 -2z m-349 -48 c26 -27 19 -45
-16 -45 -24 0 -44 30 -44 65 0 19 34 8 60 -20z m100 -313 c0 -20 -79 -129
-111 -153 -34 -26 -92 -59 -104 -59 -4 0 18 24 48 53 44 41 58 62 68 100 8 33
19 51 33 57 28 11 66 12 66 2z m616 -157 c-22 -17 -46 -20 -46 -6 0 10 22 18
50 20 11 0 10 -4 -4 -14z m-69 -25 c1 -9 -31 -38 -77 -70 -44 -30 -99 -74
-123 -97 -23 -23 -50 -42 -60 -43 -26 0 -57 18 -57 35 0 19 39 45 67 45 13 0
22 3 21 8 -10 36 38 76 141 119 61 25 85 26 88 3z"/>
<path d="M1846 1956 c-24 -30 -32 -47 -25 -52 7 -4 19 3 28 15 17 22 17 22 13
-12 -6 -51 11 -52 52 -3 24 30 32 47 25 52 -7 4 -19 -3 -28 -15 -17 -22 -17
-22 -13 12 6 51 -11 52 -52 3z"/>
<path d="M537 1933 c-3 -5 12 -27 33 -50 l37 -42 23 24 c25 27 21 46 -6 24
-14 -11 -20 -9 -43 19 -26 33 -36 38 -44 25z"/>
<path d="M1983 1888 c2 -7 -9 -27 -25 -45 -42 -43 -27 -65 16 -24 23 22 35 28
43 20 23 -23 25 13 2 37 -24 26 -44 32 -36 12z"/>
<path d="M456 1846 c-15 -24 -14 -26 27 -60 25 -21 46 -31 51 -26 6 6 5 15 -2
23 -6 7 -9 23 -5 35 12 48 -43 70 -71 28z m44 -16 c0 -5 -4 -10 -10 -10 -5 0
-10 5 -10 10 0 6 5 10 10 10 6 0 10 -4 10 -10z"/>
<path d="M2032 1770 c-41 -29 -54 -50 -31 -50 6 0 27 12 47 27 20 15 39 29 41
30 3 2 0 8 -5 13 -7 7 -24 0 -52 -20z"/>
<path d="M387 1756 c-3 -8 3 -26 14 -40 l21 -26 -27 10 c-30 11 -45 6 -45 -15
0 -20 82 -67 95 -54 7 7 5 13 -5 19 -12 8 -10 10 8 10 23 0 29 18 12 38 -7 9
-7 9 2 2 17 -14 28 -12 28 5 0 8 -20 26 -43 40 -51 29 -53 30 -60 11z"/>
<path d="M2077 1694 c-29 -9 -47 -20 -44 -27 2 -7 12 -11 22 -9 14 3 16 -1 11
-22 -10 -40 8 -38 49 4 24 25 36 44 32 54 -7 19 -8 19 -70 0z"/>
<path d="M297 1586 c-6 -14 19 -41 64 -70 24 -15 27 -15 32 -1 4 8 2 15 -3 15
-18 0 -10 22 10 27 22 6 27 22 8 28 -7 2 -34 6 -59 10 -35 4 -48 2 -52 -9z"/>
<path d="M2133 1580 c-48 -21 -47 -20 -31 -55 14 -32 32 -33 24 -2 -5 21 0 26
34 37 22 7 40 19 40 27 0 17 -16 16 -67 -7z"/>
<path d="M940 744 c-258 -12 -786 -72 -883 -100 -25 -8 -9 -27 17 -20 45 11
378 56 522 70 524 52 1091 38 1634 -40 96 -14 186 -28 199 -31 17 -4 22 -2 19
8 -7 21 -276 61 -623 95 -152 14 -719 26 -885 18z"/>
<path d="M935 683 c-51 -13 -86 -80 -71 -139 29 -113 196 -91 196 26 0 55 -23
95 -61 109 -18 6 -35 10 -38 10 -3 -1 -15 -3 -26 -6z m75 -45 c24 -26 27 -84
4 -116 -11 -16 -25 -22 -53 -22 -49 0 -66 20 -66 77 0 35 5 49 24 64 31 25 65
24 91 -3z"/>
<path d="M1160 686 c-3 -2 -4 -52 -2 -111 2 -76 7 -105 15 -102 7 2 13 22 15
44 3 37 6 40 40 49 26 6 41 18 50 38 13 25 12 31 -5 55 -16 20 -30 27 -64 29
-25 2 -47 1 -49 -2z m88 -55 c4 -25 -12 -41 -40 -41 -14 0 -18 8 -18 36 0 33
2 35 28 32 20 -2 28 -9 30 -27z"/>
<path d="M1300 613 c0 -43 6 -89 13 -103 26 -52 121 -48 146 6 6 14 11 58 11
99 0 60 -3 75 -15 75 -12 0 -15 -14 -15 -67 0 -80 -16 -117 -50 -121 -47 -4
-55 10 -56 100 0 70 -3 83 -17 86 -15 3 -17 -7 -17 -75z"/>
<path d="M1496 678 c-3 -7 -7 -56 -10 -110 l-5 -96 64 -4 c57 -3 65 -1 65 15
0 14 -9 17 -45 17 l-45 0 0 95 c0 59 -4 95 -10 95 -6 0 -12 -6 -14 -12z"/>
<path d="M733 673 c-20 -4 -23 -10 -22 -51 2 -102 14 -167 29 -167 11 0 14 11
11 48 -3 48 -2 48 25 45 25 -3 30 -9 37 -46 5 -26 13 -42 20 -39 19 6 20 56 2
84 -12 18 -14 28 -6 36 15 15 14 62 -2 76 -17 13 -64 21 -94 14z m67 -38 c19
-22 8 -50 -21 -53 -26 -3 -38 15 -39 56 0 17 45 15 60 -3z"/>
<path d="M1655 656 c-45 -45 -32 -68 60 -108 44 -20 41 -52 -6 -56 -23 -2 -40
2 -49 12 -13 17 -40 22 -40 8 0 -5 10 -18 23 -30 47 -44 137 -19 137 38 0 32
-24 54 -72 65 -38 10 -54 31 -38 50 17 21 46 19 71 -6 15 -15 24 -18 32 -10
16 16 -19 49 -60 57 -26 5 -37 1 -58 -20z"/>
<path d="M1806 627 c-3 -23 -8 -72 -12 -109 l-6 -68 28 0 c16 0 46 -3 67 -6
29 -5 37 -3 37 8 0 11 -15 17 -48 22 -47 6 -48 7 -44 39 3 30 6 32 44 32 24 0
43 5 45 13 3 8 -9 12 -42 12 -44 0 -47 2 -41 23 3 12 6 25 6 30 0 4 20 7 44 7
25 0 48 5 51 10 8 12 -6 17 -71 24 l-52 5 -6 -42z"/>
<path d="M567 653 c-3 -5 -1 -44 3 -88 5 -44 9 -90 9 -102 1 -14 7 -23 16 -23
11 0 15 12 15 45 0 43 2 46 31 52 57 11 76 88 29 113 -22 12 -97 13 -103 3z
m93 -52 c0 -28 -14 -41 -46 -41 -9 0 -14 11 -14 35 0 32 2 35 30 35 26 0 30
-3 30 -29z"/>
<path d="M865 434 c-367 -29 -775 -84 -775 -105 0 -14 161 -92 171 -82 4 4 9
28 11 53 l3 45 90 12 c581 78 1174 80 1735 5 l125 -17 3 -45 c2 -25 7 -49 11
-53 10 -10 171 68 171 82 0 14 -281 59 -550 87 -147 15 -863 28 -995 18z
m-625 -124 c0 -16 -2 -30 -5 -30 -3 0 -25 10 -48 22 l-42 22 35 7 c59 11 60
11 60 -21z m2108 14 c4 -3 -73 -44 -83 -44 -3 0 -5 14 -5 30 0 30 0 30 43 24
23 -4 44 -8 45 -10z"/>
<path d="M1076 401 c-7 -11 88 -23 174 -23 86 0 181 12 174 23 -3 5 -81 9
-174 9 -93 0 -171 -4 -174 -9z"/>
<path d="M481 334 c78 -84 256 -187 409 -238 143 -47 242 -60 414 -53 148 6
230 22 361 72 121 45 289 149 354 219 38 40 5 31 -48 -13 -229 -191 -536 -284
-833 -253 -62 7 -145 21 -184 32 -146 40 -312 127 -425 221 -53 44 -86 53 -48
13z"/>
<path d="M400 344 c1 -17 141 -129 225 -180 159 -97 365 -165 494 -163 l66 2
-75 8 c-215 25 -437 118 -601 252 -28 23 -64 53 -80 66 -16 13 -29 20 -29 15z"/>
<path d="M2027 292 c-176 -152 -402 -252 -637 -282 l-75 -9 90 4 c205 8 456
121 650 293 26 23 46 44 43 47 -2 3 -34 -21 -71 -53z"/>
</g>
</svg>
